
    
    <svg class="img-fluid" id="outputsvg" xmlns="http://www.w3.org/2000/svg" style="transform: matrix(1, 0, 0, 1, 0, 0); transform-origin: 50% 50%; cursor: move; max-height: 741px; transition: transform 200ms ease-in-out 0s;" width="608" height="608" viewBox="0 0 6080 6080"><g id="l7kMDbIAuLYB2gkVvNfStZF" fill="rgb(47,25,11)" style="transform: none; transform-origin: 50% 50%;"><g style="transform: none;"><path id="pcA7NzuL7" d="M1692 4163 l3 -38 58 -3 57 -3 0 41 0 40 -60 0 -60 0 2 -37z"></path><path id="pcgVMkF85" d="M3440 3924 c-59 -16 -83 -29 -147 -80 -63 -52 -78 -105 -78 -284 0 -128 2 -150 21 -185 26 -49 119 -114 201 -141 75 -24 240 -25 294 -1 79 35 136 104 157 189 19 76 16 98 -13 98 -16 0 -25 6 -25 15 0 8 -8 15 -17 16 -10 0 -3 5 15 10 23 7 32 16 33 32 1 21 1 20 8 -3 6 -22 8 -23 14 -7 4 10 7 41 7 68 0 45 -5 53 -30 51 -3 0 -4 18 -2 41 6 87 -64 157 -183 182 -88 18 -184 18 -255 -1z m288 -487 c16 -18 -8 -52 -47 -65 -28 -10 -29 -9 -33 26 -8 64 40 88 80 39z"></path><path id="p7oFtN65V" d="M2363 3923 c-24 -2 -43 -8 -43 -14 0 -5 -13 -9 -30 -9 -16 0 -30 -5 -30 -10 0 -13 -49 -60 -61 -60 -5 0 -9 -7 -9 -15 0 -8 -4 -15 -10 -15 -5 0 -10 -11 -10 -24 0 -13 -4 -26 -10 -28 -13 -4 -25 -92 -15 -115 7 -17 8 -17 15 2 6 13 8 -2 8 -45 0 -36 -2 -57 -5 -47 -7 29 -23 8 -23 -30 0 -54 28 -142 59 -188 14 -22 46 -53 69 -70 41 -28 50 -30 153 -33 100 -4 117 -2 185 23 41 15 74 31 74 35 0 4 13 13 30 20 42 18 107 92 119 137 6 21 10 82 10 136 0 130 -20 187 -93 255 -84 80 -123 96 -241 98 -55 1 -119 0 -142 -3z m249 -484 c15 -20 18 -34 13 -62 -8 -39 -20 -45 -87 -38 -34 3 -38 6 -38 32 0 39 18 75 44 87 30 15 46 11 68 -19z"></path></g></g><g id="l7QHAN5w17TpXhtrXCqzzAr" fill="rgb(56,34,16)" style="transform: none; transform-origin: 50% 50%;"><g style="transform: none;"><path id="plJstDmaS" d="M3057 4244 l-14 -48 -29 43 -28 43 -56 -5 c-30 -3 -78 -11 -106 -17 -58 -13 -64 -24 -64 -121 l0 -49 34 0 c32 0 35 3 41 40 6 37 9 39 51 46 40 6 49 3 73 -20 34 -33 91 -37 91 -6 0 16 7 20 34 20 22 0 38 7 47 20 11 16 20 18 49 12 31 -7 37 -14 55 -60 18 -48 23 -52 53 -52 30 0 32 2 32 38 0 33 -23 138 -32 148 -2 2 -52 6 -110 10 l-107 7 -14 -49z"></path><path id="pdS0HkKqG" d="M1556 4191 c-4 -5 2 -12 11 -14 16 -4 16 -5 -1 -6 -12 -1 -16 -6 -12 -17 3 -9 6 -18 6 -20 0 -2 24 -4 53 -5 28 -1 77 -4 107 -8 l55 -6 -72 -13 c-40 -8 -73 -18 -73 -23 0 -5 -11 -9 -24 -9 -19 0 -23 -5 -20 -26 1 -15 6 -30 11 -35 4 -4 43 -3 87 2 43 5 80 8 83 6 2 -3 -19 -11 -46 -18 -48 -12 -51 -14 -51 -46 0 -33 0 -33 49 -33 27 0 93 9 146 20 53 11 99 20 101 20 12 0 2 80 -10 87 -10 6 -16 30 -18 78 l-3 70 -187 3 c-110 1 -189 -1 -192 -7z"></path><path id="p1EzXo8nfX" d="M4127 4143 c-4 -32 -9 -85 -13 -119 l-6 -60 75 -22 c41 -12 87 -22 101 -22 13 0 28 -4 31 -10 3 -5 28 -10 56 -10 49 0 49 0 49 33 0 32 -3 34 -55 51 -30 9 -55 20 -55 23 0 3 38 4 84 1 72 -4 85 -2 89 12 7 28 -11 60 -35 61 -13 0 -66 6 -118 13 l-95 13 126 2 c134 1 142 4 131 53 -3 17 -21 19 -258 34 l-101 6 -6 -59z"></path><path id="pkBSygX4x" d="M2936 3964 c-3 -9 -6 -27 -6 -40 0 -21 4 -24 40 -24 l40 0 0 40 c0 39 -1 40 -34 40 -22 0 -36 -6 -40 -16z"></path><path id="pt8iZbGYT" d="M2325 3916 c-60 -17 -101 -42 -128 -78 -47 -62 -75 -188 -42 -188 8 0 17 14 21 35 3 19 10 35 15 35 5 0 9 11 9 25 0 14 5 25 10 25 6 0 10 8 10 17 0 9 3 14 6 10 11 -10 36 22 30 38 -4 13 -1 12 19 -1 l25 -16 -23 -22 c-37 -33 -42 -56 -12 -56 20 0 25 5 25 25 0 16 6 25 15 25 8 0 15 -6 15 -13 0 -7 9 -13 20 -13 11 0 20 4 20 9 0 4 5 5 10 2 6 -3 10 -1 10 5 0 6 5 8 10 5 6 -3 10 -1 10 5 0 6 5 8 10 5 6 -3 10 -1 10 5 0 7 8 9 20 5 14 -5 20 -2 20 9 0 12 11 16 49 16 34 0 51 4 55 15 6 17 1 17 -104 15 -43 0 -60 3 -51 9 8 5 11 16 8 25 -4 9 -3 15 1 15 18 -3 32 2 32 11 0 13 -74 11 -125 -4z"></path><path id="p1GwXrazvh" d="M2487 3923 c-13 -12 -7 -25 8 -19 9 3 15 0 15 -9 0 -8 7 -15 15 -15 8 0 15 4 15 10 0 5 7 7 15 4 10 -4 15 0 15 15 0 18 -6 21 -38 21 -21 0 -42 -3 -45 -7z"></path><path id="p1HSK410sA" d="M3747 3793 c-16 -4 -15 -8 8 -31 39 -39 49 -61 30 -68 -21 -9 -20 -54 3 -55 14 0 14 -2 -3 -9 -13 -6 -15 -9 -5 -9 15 -1 19 -36 7 -76 -3 -11 -8 -37 -12 -59 -6 -35 -7 -37 -20 -20 -14 18 -14 18 -15 -3 0 -16 6 -23 20 -23 11 0 23 0 28 -1 4 0 10 10 14 23 3 13 6 18 7 12 1 -7 12 -9 27 -6 25 4 25 3 20 -32 -5 -31 -3 -36 13 -36 15 0 22 11 30 48 15 72 13 242 -5 301 -13 44 -18 51 -41 51 -20 0 -23 -3 -14 -13 6 -8 8 -17 4 -20 -3 -4 -1 -7 6 -7 7 0 9 -4 6 -10 -11 -17 -33 -11 -62 18 -17 17 -35 27 -46 25z m129 -120 c-4 -22 -36 -30 -36 -9 0 8 8 17 18 19 9 3 18 5 19 6 1 0 0 -7 -1 -16z m-3 -56 c11 -4 17 -16 16 -34 -2 -24 -2 -25 -6 -5 -2 12 -11 22 -19 22 -8 0 -14 5 -14 10 0 18 -20 11 -21 -7 0 -12 -2 -13 -6 -5 -6 15 18 47 26 34 3 -5 14 -11 24 -15z"></path><path id="pOFEnwj19" d="M2234 3715 c-4 -8 -14 -15 -23 -15 -14 0 -14 -2 -1 -10 9 -6 14 -23 13 -49 -2 -49 12 -55 20 -8 3 17 9 47 13 65 7 33 -11 47 -22 17z"></path><path id="p10ci1uPU9" d="M3325 3693 c-13 -20 -17 -45 -16 -102 2 -97 9 -121 32 -121 16 0 17 6 13 48 -3 26 -7 56 -9 67 -2 11 -1 46 4 78 8 63 2 71 -24 30z"></path><path id="p1fYi4dua" d="M2699 3573 c-1 -10 -2 -22 -4 -28 -1 -5 -3 -16 -3 -22 -1 -7 -7 -13 -13 -13 -16 0 -39 -26 -31 -36 4 -5 -3 0 -15 10 -23 19 -23 19 -23 -3 0 -13 8 -36 17 -52 12 -21 14 -32 7 -37 -32 -20 -47 -96 -18 -85 12 4 15 2 12 -8 -3 -8 -11 -13 -17 -12 -6 2 -11 -2 -11 -7 0 -14 53 -13 85 2 16 7 25 19 25 35 0 26 -12 30 -33 8 -21 -20 -28 -8 -20 39 4 26 16 50 33 66 34 32 53 67 46 86 -3 8 -1 12 4 9 5 -3 9 9 8 30 -1 30 -5 35 -25 35 -15 0 -23 -6 -24 -17z"></path><path id="pK3KlFtmP" d="M2300 3373 c0 -13 8 -24 20 -28 11 -3 20 -13 20 -21 0 -16 18 -18 40 -4 8 5 19 5 25 0 6 -5 38 -11 70 -12 50 -3 60 0 63 15 2 10 -3 17 -12 17 -10 0 -16 9 -16 25 0 18 -5 25 -20 25 -13 0 -20 -7 -20 -19 0 -16 -9 -20 -51 -23 -57 -3 -86 5 -105 30 -12 16 -13 15 -14 -5z"></path><path id="po7S5vCPT" d="M3400 3362 c0 -13 48 -52 65 -52 8 0 15 -4 15 -10 0 -5 11 -9 25 -8 14 1 25 6 25 11 0 5 17 7 38 5 27 -2 44 2 57 15 31 29 7 41 -55 28 -71 -15 -122 -14 -148 5 -12 8 -22 11 -22 6z"></path></g></g><g id="l4n6p5chRANW3sjgkMB62Gj" fill="rgb(199,123,43)" style="transform: none; transform-origin: 50% 50%;"><g style="transform: none;"><path id="p4zOHK7yJ" d="M961 5908 c0 -95 4 -195 7 -222 l7 -50 220 -58 c280 -74 446 -108 523 -108 55 0 73 6 164 54 201 105 413 243 475 308 25 26 34 47 42 98 6 36 11 84 11 108 l0 42 -207 0 -208 -1 -60 -69 c-33 -39 -84 -91 -113 -116 l-53 -46 -64 16 c-72 18 -399 122 -430 136 -76 36 -222 80 -265 80 l-50 0 1 -172z"></path><path id="p1CCTLrOND" d="M3656 6008 c13 -135 22 -157 89 -211 76 -62 287 -193 431 -269 100 -52 117 -58 171 -58 34 0 105 9 159 20 97 20 427 103 538 135 l56 16 2 122 c0 67 1 166 2 219 l1 98 -51 0 c-35 0 -87 -13 -170 -44 -131 -48 -426 -146 -516 -171 -32 -9 -67 -14 -78 -10 -11 3 -66 55 -123 116 l-103 109 -208 0 -207 0 7 -72z"></path><path id="ptTQ7zkjC" d="M2205 5562 c-165 -162 -298 -265 -372 -289 -47 -15 -66 -15 -175 -4 -144 15 -308 40 -501 78 -75 14 -140 23 -144 19 -11 -11 97 -414 121 -450 7 -12 24 -46 37 -76 12 -30 33 -72 46 -93 28 -45 5 -49 242 40 450 167 791 344 852 440 25 39 88 301 96 396 l6 77 -34 0 c-30 -1 -50 -16 -174 -138z"></path><path id="pis85mC3M" d="M3655 5689 c-4 -6 -4 -36 0 -67 9 -83 72 -346 89 -381 34 -65 154 -144 396 -259 230 -110 660 -278 686 -268 11 4 84 148 98 194 4 12 15 22 24 23 9 0 12 3 6 5 -9 4 -9 14 -1 39 5 19 15 31 20 28 6 -4 8 0 4 10 -3 9 2 45 13 79 31 103 71 270 66 275 -3 3 -94 -11 -203 -31 -366 -66 -543 -85 -610 -67 -85 23 -271 172 -447 358 -58 62 -74 73 -102 73 -18 0 -36 -5 -39 -11z"></path><path id="p14VFbG7Kc" d="M2537 4745 c-98 -13 -187 -27 -198 -30 -18 -6 -111 -83 -342 -285 -86 -75 -97 -88 -97 -117 0 -30 3 -33 31 -33 24 0 86 38 268 165 266 184 217 164 609 250 18 4 22 12 22 40 l0 35 -57 -1 c-32 0 -138 -11 -236 -24z"></path><path id="pmpjCznHB" d="M3270 4735 c0 -37 0 -37 85 -50 40 -6 262 -46 363 -66 42 -9 81 -31 212 -125 119 -85 167 -114 190 -114 27 0 30 3 30 34 0 29 -10 42 -92 113 -185 159 -215 181 -255 187 -83 13 -466 56 -498 56 -33 0 -35 -2 -35 -35z"></path><path id="p5EoVtPT3" d="M3050 4243 c-14 -38 -26 -100 -37 -180 l-5 -43 41 0 41 0 0 42 c0 47 46 148 68 148 6 0 12 6 12 14 0 16 -53 32 -58 18 -1 -5 -9 -18 -17 -28 -13 -17 -14 -16 -4 14 10 28 15 32 45 32 19 0 34 5 34 10 0 6 -24 10 -53 10 -52 0 -53 -1 -67 -37z"></path><path id="pBrMOHLfF" d="M1536 4193 c16 -50 28 -64 53 -61 38 5 35 23 -6 35 l-38 11 38 -5 c33 -5 37 -3 37 16 0 18 -6 21 -45 21 -38 0 -44 -3 -39 -17z"></path><path id="puAWm0Xqg" d="M2750 4075 c0 -33 2 -35 35 -35 33 0 35 2 35 35 0 33 -2 35 -35 35 -33 0 -35 -2 -35 -35z"></path><path id="p5d1okWNl" d="M1585 4063 c4 -10 8 -27 9 -38 1 -14 9 -21 29 -23 26 -3 27 -1 27 37 0 40 -1 41 -36 41 -30 0 -35 -3 -29 -17z"></path><path id="pS4sK70Vs" d="M4398 4073 c-29 -7 -21 -21 15 -26 l32 -4 -32 -1 c-26 -2 -33 -6 -33 -22 0 -17 7 -20 49 -20 l49 0 4 40 4 40 -36 -1 c-19 -1 -43 -3 -52 -6z"></path><path id="p19GYlQrGk" d="M1656 3986 c-22 -7 -42 -18 -44 -25 -2 -6 3 -44 12 -84 8 -40 20 -103 25 -142 6 -38 21 -101 34 -140 l24 -70 139 3 c76 1 167 5 202 8 l62 6 0 38 c0 35 -3 39 -36 50 -19 7 -101 25 -182 40 l-147 29 125 -6 c69 -3 152 -3 183 1 57 7 57 7 57 42 0 42 4 41 -235 100 -226 56 -234 59 -176 69 72 12 100 53 34 48 l-38 -2 38 10 c20 6 37 17 37 25 0 17 -58 17 -114 0z"></path><path id="p9RivgKI7" d="M2937 3983 c-4 -3 -7 -21 -7 -40 0 -33 1 -33 45 -33 l45 0 0 40 c0 40 0 40 -38 40 -21 0 -42 -3 -45 -7z"></path><path id="paVCEhEE8" d="M3060 3956 c0 -40 19 -59 57 -54 30 3 39 23 29 64 -5 20 -12 24 -46 24 -39 0 -40 -1 -40 -34z"></path><path id="pupESA6LE" d="M4300 3976 c0 -8 8 -17 18 -19 16 -4 16 -5 0 -6 -19 -1 -23 -18 -10 -38 4 -6 23 -15 42 -21 44 -12 42 -12 -152 -57 -87 -20 -181 -44 -210 -54 -48 -16 -53 -21 -56 -51 -2 -20 2 -36 10 -41 7 -5 56 -9 108 -10 l95 -1 -85 -19 c-131 -29 -140 -34 -140 -80 0 -37 1 -38 43 -43 23 -3 112 -8 198 -11 l157 -6 44 123 c25 68 53 148 62 178 10 30 20 62 23 70 4 8 8 27 10 41 3 23 -1 27 -50 42 -66 21 -107 22 -107 3z m75 -36 c19 -8 19 -9 -2 -9 -12 -1 -25 4 -28 9 -7 12 2 12 30 0z"></path><path id="pSBt3XemN" d="M2915 3458 c-4 -13 -10 -182 -12 -375 l-5 -353 83 0 c125 0 357 22 375 35 15 10 15 20 4 86 -57 352 -85 429 -155 429 -63 0 -83 -45 -92 -207 -3 -57 -9 -103 -13 -103 -5 0 -11 33 -15 73 -9 98 -51 343 -67 392 -12 37 -16 40 -54 43 -36 3 -42 0 -49 -20z"></path><path id="pI73l3jyc" d="M4112 3277 c-7 -7 -16 -36 -22 -63 -23 -105 -79 -166 -167 -179 -52 -7 -95 -30 -132 -69 -18 -19 -22 -33 -19 -65 l4 -41 -54 0 c-69 0 -92 -12 -92 -51 0 -64 46 -138 236 -374 126 -158 266 -313 321 -356 19 -16 48 -29 63 -29 28 0 41 20 72 115 19 59 17 378 -5 540 -9 72 -23 183 -31 247 -15 119 -51 289 -68 321 -11 21 -90 24 -106 4z"></path><path id="p1DBLjyol1" d="M2711 3232 c-30 -58 -53 -188 -76 -429 l-6 -63 48 0 c26 0 85 -3 131 -7 l82 -6 0 79 c0 161 -25 370 -51 437 -10 24 -16 27 -60 27 -46 0 -50 -2 -68 -38z"></path><path id="p109O2g3Ia" d="M1930 3043 c-56 -180 -134 -580 -160 -828 -12 -107 -7 -189 12 -212 15 -18 94 -16 136 4 47 21 227 201 317 317 208 266 285 397 285 481 0 41 -46 90 -92 100 -51 11 -85 32 -104 65 -24 40 -61 53 -141 49 l-67 -4 -15 40 c-22 58 -54 85 -101 85 l-39 0 -31 -97z"></path></g></g><g id="l3MrBuXByx2FxuRqeWGjE0c" fill="rgb(243,157,56)" style="transform: none; transform-origin: 50% 50%;"><g style="transform: none;"><path id="p1DisJJyAr" d="M2745 6018 c-22 -204 -65 -501 -90 -623 -21 -99 -34 -132 -72 -176 -103 -118 -253 -355 -253 -398 0 -29 2 -31 38 -31 36 0 48 9 159 118 124 121 191 199 223 261 23 45 63 224 90 401 26 168 60 445 60 482 l0 28 -74 0 -74 0 -7 -62z"></path><path id="p1CnWxNCre" d="M3183 6018 c23 -283 130 -741 202 -863 40 -70 144 -148 317 -240 72 -38 116 -55 141 -55 35 0 37 2 37 33 -1 34 -20 67 -39 67 -6 0 -14 7 -17 15 -4 8 -11 15 -17 15 -16 0 -187 133 -255 198 -49 47 -63 69 -76 113 -15 53 -79 378 -97 494 -9 63 -37 224 -45 263 -4 20 -10 22 -80 22 l-76 0 5 -62z"></path><path id="pAvhngcyB" d="M1220 5996 c0 -16 41 -43 64 -43 22 0 26 4 24 21 -2 17 -11 22 -45 24 -24 2 -43 1 -43 -2z"></path><path id="pwjbbNx6z" d="M4720 5960 c0 -20 15 -22 53 -5 28 12 19 25 -18 25 -28 0 -35 -4 -35 -20z"></path><path id="p10Qv9ATx8" d="M1770 5840 c0 -13 7 -20 18 -20 11 0 27 9 37 20 18 20 17 20 -18 20 -30 0 -37 -4 -37 -20z"></path><path id="pOoJlAkor" d="M2133 5718 c-42 -26 -42 -38 2 -38 32 0 35 2 35 30 0 17 -1 30 -2 29 -2 0 -18 -10 -35 -21z"></path><path id="paakQH6dx" d="M3970 5656 l0 -36 46 0 c55 0 54 13 -4 47 l-42 25 0 -36z"></path><path id="p1CxzU4HMQ" d="M2003 5639 c-42 -27 -42 -39 2 -39 32 0 35 2 35 30 0 17 -1 30 -2 30 -2 0 -18 -10 -35 -21z"></path><path id="pJ33Lpq0N" d="M1080 5619 c0 -28 2 -29 46 -29 37 0 45 3 42 16 -2 10 -21 22 -45 29 l-43 13 0 -29z"></path><path id="pG42P8XmR" d="M4200 5527 c0 -40 28 -57 90 -57 59 0 50 21 -25 58 l-65 32 0 -33z"></path><path id="p1FnIhrEik" d="M1430 5526 c0 -24 3 -26 45 -26 38 0 45 3 45 20 0 11 -6 20 -14 20 -7 0 -28 3 -45 6 -28 6 -31 4 -31 -20z"></path><path id="psArBOESk" d="M1733 5503 c-15 -3 -23 -12 -23 -24 0 -15 7 -19 35 -19 31 0 35 3 35 25 0 25 -4 26 -47 18z"></path><path id="p1hBungJ1" d="M2090 5429 l0 -30 30 21 c44 31 45 40 6 40 -33 0 -36 -2 -36 -31z"></path><path id="pOcSyplHU" d="M3720 5315 c0 -30 3 -35 24 -35 23 0 24 2 13 35 -6 19 -16 35 -24 35 -8 0 -13 -13 -13 -35z"></path><path id="pTGJD6R6x" d="M1630 5255 c0 -8 6 -15 14 -15 8 0 16 -5 18 -11 5 -15 58 0 58 16 0 16 -22 25 -61 25 -19 0 -29 -5 -29 -15z"></path><path id="p19JG6EmzD" d="M4350 5246 c0 -19 33 -26 53 -11 25 18 21 25 -18 25 -23 0 -35 -5 -35 -14z"></path><path id="pNzHGyOMu" d="M2228 5200 l-33 -29 38 -1 c35 0 37 2 37 30 0 17 -2 30 -5 30 -3 0 -19 -13 -37 -30z"></path><path id="phSlxpNsr" d="M3800 5191 c0 -34 3 -41 20 -41 11 0 20 -7 20 -15 0 -8 7 -15 15 -15 8 0 15 -4 15 -10 0 -5 20 -10 45 -10 25 0 45 4 45 9 0 5 -17 19 -37 32 -21 12 -57 38 -80 56 l-43 34 0 -40z"></path><path id="p1DHIB8rG8" d="M2043 5084 c-51 -30 -55 -44 -10 -44 44 0 59 12 55 43 l-3 27 -42 -26z"></path><path id="prQACwQTq" d="M4030 5046 c0 -38 12 -46 71 -46 56 0 50 21 -16 53 l-55 27 0 -34z"></path><path id="paXiAihgo" d="M1843 4988 c-35 -17 -29 -38 12 -38 31 0 35 3 35 25 0 27 -12 30 -47 13z"></path><path id="p1FMJWM753" d="M4200 4961 c0 -33 14 -41 71 -41 55 0 50 23 -10 49 -27 11 -52 21 -55 21 -3 0 -6 -13 -6 -29z"></path><path id="p18HTLYgfD" d="M1753 4948 c-35 -17 -29 -38 12 -38 31 0 35 3 35 25 0 27 -12 30 -47 13z"></path><path id="p1DCCnYZuk" d="M4340 4901 c0 -29 3 -31 35 -31 24 0 35 -5 35 -15 0 -11 12 -15 45 -15 32 0 45 4 45 14 0 12 -30 27 -147 73 -9 4 -13 -5 -13 -26z"></path><path id="pYnMYoWRM" d="M4590 4800 c0 -28 2 -30 40 -30 29 0 40 -4 40 -15 0 -11 12 -15 46 -15 73 0 55 27 -41 61 -44 16 -81 29 -82 29 -2 0 -3 -13 -3 -30z"></path><path id="pUn2FakUG" d="M1383 4800 c-37 -15 -29 -40 12 -40 31 0 35 3 35 25 0 26 -10 30 -47 15z"></path><path id="prvOx9HYQ" d="M2776 4765 c-8 -8 -22 -15 -30 -15 -9 0 -16 -4 -16 -8 0 -4 17 -6 38 -4 28 2 33 1 22 -7 -8 -6 -25 -11 -37 -11 -17 0 -23 -6 -23 -21 0 -20 4 -21 54 -15 81 9 86 13 86 57 0 39 0 39 -39 39 -22 0 -46 -7 -55 -15z"></path><path id="pjd7gk12i" d="M3210 4736 l0 -43 53 -7 c90 -10 107 -8 107 14 0 14 -7 20 -22 20 -13 0 -30 5 -38 11 -11 8 -6 9 23 5 20 -2 37 -1 37 4 0 14 -78 40 -120 40 l-40 0 0 -44z"></path><path id="pEb4TsHyC" d="M2273 4548 c-42 -29 -41 -38 2 -38 32 0 35 2 35 30 0 17 -1 30 -3 30 -1 0 -17 -10 -34 -22z"></path><path id="p4boSK4MQ" d="M4111 4423 c10 -11 10 -14 2 -9 -9 5 -13 -1 -13 -18 0 -23 4 -26 35 -26 33 0 35 2 35 35 0 34 -1 35 -36 35 -33 0 -35 -2 -23 -17z"></path><path id="pg4RTFPwj" d="M1920 4352 c0 -6 -11 -13 -25 -16 -21 -5 -25 -12 -25 -46 0 -38 2 -40 29 -40 39 0 61 9 61 26 0 8 7 14 16 14 11 0 14 8 12 33 -3 28 -7 32 -35 35 -18 2 -33 -1 -33 -6z m60 -6 c0 -2 -12 -12 -27 -21 l-28 -18 19 21 c17 20 36 29 36 18z"></path><path id="pQ7sXFE7Z" d="M3070 4265 c0 -36 13 -47 24 -20 3 8 17 15 31 15 18 0 25 5 25 20 0 17 -7 20 -40 20 -39 0 -40 -1 -40 -35z"></path><path id="psPMhLdzz" d="M2995 4193 l28 -38 -36 34 -37 35 0 -35 c0 -25 8 -43 25 -59 14 -13 25 -31 25 -41 0 -52 29 -65 48 -21 l12 27 -4 -27 c-4 -31 18 -39 28 -12 10 26 7 72 -6 76 -6 2 -12 14 -13 27 -1 12 -6 26 -11 29 -6 4 -13 15 -17 25 -4 11 -17 17 -38 17 l-31 0 27 -37z"></path><path id="p18LdEMXAz" d="M1560 4196 c0 -7 10 -16 23 -20 41 -11 57 -7 57 14 0 17 -7 20 -40 20 -27 0 -40 -4 -40 -14z"></path><path id="pDtDO2zCd" d="M2770 4171 c0 -11 -4 -21 -10 -23 -5 -1 -12 -33 -16 -70 l-7 -68 36 0 c33 0 37 3 47 38 6 20 14 61 17 90 5 43 3 52 -10 52 -9 0 -19 -15 -26 -37 l-10 -38 2 38 c2 25 -1 37 -10 37 -7 0 -13 -9 -13 -19z"></path><path id="pmOL8OuIG" d="M1560 4150 c0 -5 18 -10 40 -10 22 0 40 5 40 10 0 6 -18 10 -40 10 -22 0 -40 -4 -40 -10z"></path><path id="pOqmYYcBj" d="M1610 3960 c0 -11 5 -20 11 -20 6 0 9 -7 5 -15 -4 -11 2 -15 24 -15 28 0 30 3 30 35 0 33 -2 35 -35 35 -28 0 -35 -4 -35 -20z"></path><path id="p13RcB3yBG" d="M2435 3853 c-52 -6 -133 -34 -154 -52 -38 -33 -53 -89 -54 -196 -1 -179 44 -260 158 -280 137 -23 145 -23 145 0 0 26 -18 45 -42 45 -11 0 -15 -5 -12 -15 5 -12 -3 -15 -39 -15 -96 0 -107 6 -142 84 -37 79 -60 183 -51 231 14 71 157 170 246 170 37 0 54 -7 89 -35 52 -41 98 -109 113 -167 12 -48 33 -57 40 -18 6 29 -39 110 -109 199 l-43 56 -58 -1 c-31 -1 -70 -4 -87 -6z"></path><path id="pO7FkI9fp" d="M3423 3838 c-53 -60 -143 -220 -143 -257 0 -36 83 -184 128 -229 l44 -45 82 6 c123 10 166 21 166 43 0 18 -41 18 -104 -1 -27 -8 -75 -15 -107 -15 -52 0 -60 3 -83 30 -35 43 -57 120 -63 223 -5 81 -4 90 20 125 30 46 104 96 167 112 74 20 142 1 223 -63 44 -34 60 -29 31 10 -39 52 -137 82 -266 83 -36 0 -48 -4 -51 -17 -4 -17 -5 -17 -6 0 -1 23 -13 22 -38 -5z"></path><path id="pG6sxxEvK" d="M4270 3836 c0 -7 9 -16 20 -19 11 -3 20 -1 20 4 0 5 7 9 15 9 8 0 15 5 15 10 0 6 -16 10 -35 10 -23 0 -35 -5 -35 -14z"></path><path id="pPhEZlj8" d="M3799 3623 c-1 -46 -7 -86 -20 -138 -9 -32 -13 -36 -20 -22 -19 32 -29 17 -29 -43 0 -33 4 -60 9 -60 15 0 53 71 67 125 16 59 19 175 4 175 -5 0 -10 -17 -11 -37z"></path><path id="p15TMm7KoK" d="M4190 3536 c0 -24 3 -26 45 -26 38 0 45 3 45 20 0 11 -6 20 -14 20 -7 0 -28 3 -45 6 -28 6 -31 4 -31 -20z"></path><path id="ptcIHi4tW" d="M4086 3314 c-3 -9 -6 -47 -6 -85 0 -60 2 -69 18 -69 13 0 21 12 28 42 11 52 39 72 60 44 13 -18 14 -17 14 18 0 47 -20 65 -71 66 -25 0 -39 -5 -43 -16z"></path><path id="p7Q9OggGO" d="M1966 3168 c-15 -57 1 -109 22 -72 7 13 13 14 31 5 12 -7 19 -16 16 -22 -4 -5 1 -9 9 -9 9 0 16 -7 16 -15 0 -8 5 -15 11 -15 8 0 10 18 6 58 -9 87 -13 92 -62 92 -36 0 -44 -4 -49 -22z"></path><path id="pkjw17gE9" d="M2114 3034 c-32 -35 -32 -37 -16 -59 l17 -23 37 19 c56 29 103 21 135 -20 10 -13 12 -10 13 21 0 54 -48 98 -109 98 -37 0 -48 -5 -77 -36z"></path><path id="pFMggNmcJ" d="M3810 3013 c-37 -14 -50 -36 -50 -88 l0 -52 -80 5 -80 5 0 -51 c0 -54 15 -72 59 -72 18 0 19 3 11 25 -8 20 -6 27 11 36 12 6 31 8 43 5 30 -7 66 3 66 20 0 8 5 14 11 14 7 0 9 11 6 29 -6 30 16 58 76 96 15 9 27 21 27 26 0 10 -75 11 -100 2z"></path><path id="pUT3mN1dy" d="M3090 2870 c0 -97 1 -100 23 -100 21 0 22 3 22 100 0 97 -1 100 -22 100 -22 0 -23 -3 -23 -100z"></path><path id="pT7DJ8RVN" d="M2410 2886 c0 -9 4 -16 10 -16 5 0 23 -14 40 -31 30 -32 31 -45 9 -106 -7 -20 -5 -23 16 -23 33 0 75 62 75 112 0 47 -26 66 -99 75 -43 5 -51 3 -51 -11z"></path><path id="pewDsoC5h" d="M2620 2760 c0 -24 35 -28 44 -4 9 23 8 24 -19 24 -18 0 -25 -5 -25 -20z"></path><path id="pe7ekq5Vm" d="M4310 2598 c0 -23 12 -58 19 -58 4 0 5 16 3 35 -4 32 -22 51 -22 23z"></path><path id="p1AB8tmYCL" d="M4321 2473 c0 -21 4 -47 9 -58 6 -14 9 -4 9 38 1 32 -3 57 -9 57 -5 0 -10 -17 -9 -37z"></path><path id="pPpVl34W9" d="M4328 2290 c-11 -38 -10 -56 3 -43 6 6 9 23 7 39 l-3 29 -7 -25z"></path><path id="pk9hYJ1e9" d="M4150 2126 c0 -35 1 -36 40 -36 22 0 40 2 40 4 0 2 -18 19 -40 36 l-40 32 0 -36z"></path></g></g><g id="l24X7M2ubez74rnX3l0jBFS" fill="rgb(247,187,79)" style="transform: none; transform-origin: 50% 50%;"><g style="transform: none;"><path id="pHxXNGty4" d="M1004 6063 c44 -23 452 -166 594 -207 163 -47 187 -47 248 4 50 41 194 199 194 212 0 5 -240 8 -532 8 -492 -1 -531 -2 -504 -17z"></path><path id="pTUvC8BC6" d="M2372 5988 c-10 -82 -14 -95 -44 -126 -29 -30 -191 -152 -202 -152 -6 0 -109 -63 -116 -70 -6 -7 -126 -71 -200 -108 -30 -15 -57 -30 -60 -33 -3 -3 -54 3 -115 14 -60 11 -123 20 -140 20 -16 0 -32 3 -35 7 -8 13 -310 89 -327 83 -8 -3 -18 -1 -22 6 -4 6 -38 20 -75 30 l-68 19 6 -57 c4 -31 14 -106 23 -168 l17 -112 65 -15 c186 -42 572 -96 687 -96 33 0 80 7 105 15 67 23 207 133 368 290 l144 140 -8 -55 c-12 -88 -74 -333 -92 -360 -24 -38 -44 -55 -130 -110 -43 -27 -84 -55 -90 -60 -7 -6 -13 -7 -13 -3 0 4 -4 4 -8 -2 -4 -5 -45 -28 -92 -50 -47 -22 -88 -44 -91 -48 -3 -5 -9 -8 -13 -7 -12 2 -76 -24 -76 -32 0 -4 -3 -7 -7 -6 -9 3 -355 -133 -363 -142 -3 -3 -9 -5 -15 -5 -10 0 -144 -44 -157 -52 -13 -7 96 -185 188 -308 12 -16 34 -59 49 -95 22 -54 68 -143 82 -159 2 -3 83 -7 180 -10 138 -5 177 -9 181 -20 4 -11 -6 -13 -54 -8 -33 4 -114 9 -180 13 l-122 6 20 -60 c14 -44 23 -59 34 -55 8 3 14 0 14 -6 0 -6 -7 -11 -16 -11 -10 0 -14 -6 -10 -17 3 -10 8 -30 12 -45 3 -16 10 -28 14 -28 5 0 6 -16 3 -35 -7 -43 -11 -41 222 -99 99 -25 194 -50 210 -57 l30 -12 -35 -8 c-19 -5 -117 -6 -217 -2 -175 6 -183 5 -183 -13 0 -10 4 -24 8 -29 4 -6 79 -24 167 -39 173 -31 255 -52 255 -66 0 -10 -68 -17 -250 -25 -69 -4 -126 -8 -128 -10 -2 -2 11 -31 28 -64 40 -80 98 -308 106 -419 5 -72 3 -97 -14 -147 -18 -55 -49 -175 -72 -285 -33 -156 -43 -247 -44 -395 -1 -149 1 -163 22 -207 36 -73 63 -89 131 -81 31 3 79 16 107 29 179 79 447 375 602 663 30 56 59 98 73 105 17 8 25 21 26 46 13 174 45 356 74 412 35 68 65 47 88 -62 12 -57 31 -265 31 -347 l0 -63 34 0 34 0 5 337 c4 333 9 387 31 380 26 -8 66 -213 105 -541 11 -93 23 -171 25 -173 2 -3 14 -2 25 2 15 4 21 15 21 36 0 16 -3 29 -7 29 -5 0 -9 32 -11 70 -2 39 1 70 6 70 5 0 12 46 15 103 6 112 19 168 44 193 16 15 18 15 40 -10 33 -39 58 -135 102 -395 5 -35 12 -65 13 -67 2 -1 23 2 47 7 25 5 50 8 56 5 7 -2 61 -69 120 -148 155 -205 233 -297 370 -433 122 -121 214 -185 267 -185 51 0 90 51 119 155 20 71 18 374 -4 540 -9 72 -23 182 -32 245 -24 187 -37 351 -30 391 4 21 22 77 41 125 l34 87 -55 -6 c-31 -3 -55 -2 -55 4 0 5 -47 9 -104 9 -106 0 -166 7 -166 20 0 15 62 33 239 68 172 34 200 43 201 65 0 4 -89 5 -198 1 -136 -5 -205 -3 -218 4 -18 10 -17 11 11 22 39 15 223 63 353 91 83 18 102 26 103 41 2 20 3 27 12 48 11 27 28 102 24 106 -2 2 -73 9 -158 15 -131 10 -180 21 -165 37 2 1 74 -5 160 -15 175 -20 176 -19 176 45 l0 32 -165 0 c-143 0 -165 2 -165 16 0 12 8 14 43 10 23 -3 97 -8 165 -12 120 -6 122 -5 122 15 0 33 42 108 110 196 68 89 198 281 224 333 10 19 15 37 11 40 -14 14 -98 40 -111 35 -8 -3 -21 2 -28 12 -7 10 -25 18 -42 18 -16 0 -33 5 -39 12 -13 16 -124 59 -148 58 -10 -1 -27 7 -37 17 -11 11 -27 16 -39 13 -13 -3 -21 -1 -21 6 0 15 -65 43 -104 45 -17 1 -32 8 -34 15 -5 14 -117 72 -125 65 -9 -9 -47 6 -47 19 0 14 -117 78 -142 77 -10 0 -18 5 -18 10 0 6 -7 10 -15 10 -8 0 -15 7 -15 15 0 8 -9 15 -20 15 -11 0 -20 6 -20 13 0 8 -9 22 -21 33 -34 31 -50 71 -80 203 -36 155 -48 230 -39 236 4 3 38 -28 76 -68 176 -186 362 -335 447 -358 78 -21 314 2 671 67 78 14 148 27 157 30 13 4 19 27 28 107 15 136 19 166 27 204 l6 32 -108 -30 c-347 -95 -598 -151 -666 -148 -51 1 -98 17 -98 33 -1 14 -184 116 -210 116 -11 0 -20 6 -20 13 0 6 -45 41 -99 75 -54 35 -119 82 -145 105 -49 44 -49 44 -72 205 l-5 32 -189 0 c-154 0 -190 -3 -190 -14 0 -7 7 -53 16 -102 8 -49 22 -127 29 -174 23 -143 85 -462 101 -519 13 -44 27 -66 76 -113 68 -65 239 -198 255 -198 6 0 13 -7 17 -15 3 -8 11 -15 18 -15 7 0 19 -9 26 -20 7 -11 9 -20 5 -20 -12 0 -214 110 -262 142 -84 57 -141 110 -166 153 -70 118 -163 511 -202 848 l-6 47 -168 0 c-133 0 -169 -3 -169 -13 0 -7 -9 -85 -20 -173 -47 -382 -95 -628 -137 -706 -33 -61 -160 -205 -258 -293 -85 -76 -108 -91 -84 -54 9 13 31 49 50 79 41 68 152 223 192 269 16 19 35 48 42 65 29 69 78 365 115 691 6 49 13 99 16 112 l6 23 -204 0 -204 0 -12 -92z m468 -1247 c0 -12 -27 -22 -44 -15 -8 3 -17 0 -21 -5 -3 -6 -10 -9 -15 -6 -5 3 -47 -3 -92 -14 -46 -11 -123 -29 -171 -40 -80 -19 -151 -55 -222 -113 -5 -5 -82 -58 -170 -119 -88 -61 -168 -120 -179 -131 -10 -10 -20 -17 -23 -14 -3 3 10 18 28 33 19 15 70 60 114 99 190 168 305 263 325 269 12 4 119 19 238 35 119 15 220 28 225 29 4 1 7 -3 7 -8z m675 -26 c121 -14 237 -28 258 -31 30 -5 66 -29 155 -104 115 -96 211 -182 182 -162 -8 5 -81 57 -163 115 -119 85 -157 108 -200 116 -258 51 -339 64 -384 65 -29 0 -53 4 -53 9 0 4 -16 5 -35 1 -29 -5 -35 -3 -35 11 0 13 6 15 28 11 15 -3 126 -17 247 -31z m-318 -462 c62 -6 63 -6 72 -42 21 -80 21 -93 -1 -41 -25 59 -38 66 -119 69 -32 1 -37 -3 -57 -45 -31 -63 -37 -50 -11 20 17 43 26 55 38 51 9 -3 44 -9 78 -12z m-199 -57 c56 -73 54 -93 -3 -24 l-45 55 -68 -15 -68 -15 -12 -65 c-7 -36 -17 -72 -23 -81 -8 -13 -9 -13 -5 4 2 11 10 52 16 92 l12 72 56 11 c31 6 62 13 67 15 24 8 32 2 73 -49z m-1088 -106 c0 -12 -18 -16 -145 -35 -89 -13 -117 -13 -104 -1 6 6 191 44 222 45 15 1 27 -3 27 -9z m1150 -14 c0 -36 -17 -41 -22 -6 -3 20 0 30 9 30 7 0 13 -11 13 -24z m-607 -30 c32 -7 60 -16 63 -19 11 -10 -78 -29 -140 -29 -68 -1 -153 19 -140 32 11 10 88 28 129 29 17 0 56 -5 88 -13z m1362 -8 l50 -11 -35 -15 c-45 -19 -183 -20 -234 -3 -47 16 -35 26 46 40 56 9 91 7 173 -11z m-1880 -29 c4 -6 5 -12 3 -14 -10 -10 -229 -51 -239 -44 -6 4 10 12 37 18 27 6 78 19 114 30 79 24 77 23 85 10z m2339 -32 c71 -24 125 -47 119 -50 -13 -8 -53 3 -53 14 0 5 -12 9 -26 9 -44 0 -174 42 -174 57 0 7 1 13 3 13 1 0 60 -20 131 -43z m-1204 -33 c7 -20 22 -39 34 -44 14 -6 -9 -9 -71 -9 -51 -1 -93 3 -93 7 0 4 20 13 44 21 33 9 46 19 50 37 9 34 23 30 36 -12z m-84 0 c-3 -9 -6 -18 -6 -21 0 -3 -7 0 -15 7 -13 11 -13 15 -3 21 21 13 31 10 24 -7z m-418 -52 c53 -12 144 -74 184 -125 81 -102 82 -299 2 -381 -34 -35 -125 -98 -135 -94 -3 2 -13 -2 -21 -9 -8 -7 -39 -18 -69 -26 -104 -25 -193 -7 -263 54 -25 22 -46 47 -46 55 0 8 -4 14 -9 14 -7 0 -18 30 -38 110 -28 112 0 257 66 336 18 23 70 53 102 60 10 2 29 6 40 9 12 2 23 6 25 8 7 6 118 -1 162 -11z m1128 0 c97 -30 168 -111 180 -204 2 -18 6 -49 9 -70 6 -45 -21 -180 -46 -227 -49 -94 -127 -142 -233 -146 -73 -2 -128 10 -210 49 -129 61 -163 127 -153 300 7 120 23 168 68 210 83 77 162 106 274 101 44 -2 94 -8 111 -13z m468 -618 c14 -15 30 -43 36 -63 37 -141 73 -331 105 -556 41 -288 26 -510 -38 -563 -11 -10 -20 -8 -40 8 -14 11 -30 20 -36 20 -6 0 -11 4 -11 9 0 5 -39 51 -86 102 -116 127 -299 355 -367 459 -31 47 -65 94 -77 106 -11 12 -20 29 -20 39 0 15 6 17 45 11 25 -3 65 -9 90 -12 l45 -7 0 32 c0 17 -4 31 -8 31 -16 0 -12 57 6 73 10 9 60 25 111 36 110 22 137 39 173 110 22 43 26 62 21 96 -6 47 2 95 16 95 4 0 20 -12 35 -26z m-2128 -141 c12 -56 47 -143 61 -154 11 -10 20 -5 47 24 19 21 40 37 47 37 20 -1 63 -41 95 -89 33 -50 59 -65 142 -81 35 -7 73 -21 85 -30 l21 -17 -68 -104 c-261 -395 -507 -674 -614 -695 -44 -9 -57 15 -55 105 3 159 96 662 159 866 39 125 42 135 43 153 2 24 31 12 37 -15z"></path><path id="p1AjNltaeO" d="M2500 3845 c0 -8 12 -18 27 -21 15 -4 34 -13 41 -21 20 -19 52 -17 51 5 0 10 -3 12 -6 5 -5 -15 -33 -18 -33 -4 0 5 -9 13 -20 16 -11 3 -20 13 -20 21 0 8 -9 14 -20 14 -11 0 -20 -7 -20 -15z"></path><path id="pjGSXgSRb" d="M2310 3809 c0 -5 -5 -7 -10 -4 -21 13 -75 -84 -57 -101 2 -3 35 18 71 46 48 35 63 52 52 56 -8 3 -20 3 -26 -1 -5 -3 -10 -1 -10 4 0 6 -4 11 -10 11 -5 0 -10 -5 -10 -11z"></path><path id="pKHaAYW1L" d="M2690 3670 c-12 -8 -12 -10 5 -11 11 0 15 -3 9 -5 -6 -3 -9 -25 -6 -58 6 -70 -24 -169 -43 -143 -19 27 -25 20 -25 -28 0 -33 4 -45 15 -45 13 0 20 19 16 43 -1 5 3 6 8 3 12 -8 56 68 70 122 10 36 9 48 -8 87 -22 50 -20 48 -41 35z"></path><path id="pil8T51i7" d="M2232 3630 c0 -19 2 -27 5 -17 2 9 2 25 0 35 -3 9 -5 1 -5 -18z"></path><path id="p14qNCtruS" d="M2242 3458 c12 -36 34 -65 43 -56 4 3 1 24 -5 47 -8 30 -16 41 -30 41 -17 0 -18 -3 -8 -32z"></path><path id="pnPPXzfr1" d="M2291 3391 c-11 -7 -10 -11 7 -20 17 -9 19 -8 15 9 -3 11 -6 20 -7 20 0 0 -7 -4 -15 -9z"></path><path id="pu9xM9FyD" d="M2605 3330 c-34 -16 -41 -17 -43 -5 -4 17 -72 22 -72 6 0 -14 18 -23 57 -28 47 -6 80 3 93 27 6 11 9 20 8 19 -2 0 -21 -9 -43 -19z"></path><path id="pTQNbrVKo" d="M3422 3830 c-12 -16 -22 -32 -22 -35 0 -10 26 -5 77 17 65 28 69 48 10 48 -36 0 -47 -5 -65 -30z"></path><path id="pMzA5tJDJ" d="M3746 3794 c-8 -21 -4 -25 14 -14 11 7 12 12 4 20 -8 8 -13 7 -18 -6z"></path><path id="p1AscNdYH2" d="M3772 3773 c-9 -4 -7 -12 8 -33 12 -17 20 -44 20 -69 0 -23 5 -41 10 -41 14 0 12 25 -4 89 -17 60 -16 60 -34 54z"></path><path id="pQf2pVuvo" d="M3293 3620 c-11 -30 -10 -42 5 -85 11 -32 24 -50 35 -51 13 -2 13 -1 2 3 -17 5 -21 23 -5 23 6 0 10 9 10 20 0 11 -7 20 -14 20 -11 0 -16 15 -18 53 l-3 52 -12 -35z"></path><path id="p1CJ0TJQrL" d="M3623 3376 c4 -9 -3 -16 -19 -20 -13 -4 -24 -12 -24 -20 0 -10 11 -11 45 -6 25 4 48 8 50 8 3 1 12 2 20 2 24 0 17 26 -10 38 -36 17 -68 15 -62 -2z"></path><path id="pfezjO8Ow" d="M3540 3330 c0 -5 7 -10 15 -10 8 0 15 5 15 10 0 6 -7 10 -15 10 -8 0 -15 -4 -15 -10z"></path><path id="p0HEAVG1a" d="M4041 6049 c43 -61 195 -212 226 -225 37 -16 102 -2 328 72 147 48 497 173 504 180 2 2 -240 4 -538 4 l-542 0 22 -31z"></path></g></g><g id="l1s0WF78j9FcKJPVW4sE92w" fill="rgb(247,221,223)" style="transform: none; transform-origin: 50% 50%;"><g style="transform: none;"><path id="pkyergCJp" d="M2253 4076 c-126 -31 -107 -81 40 -106 111 -20 287 14 287 54 0 22 -22 34 -91 51 -76 18 -165 18 -236 1z"></path><path id="p10dik4Oo" d="M3612 4079 c-69 -12 -114 -35 -110 -57 11 -59 265 -81 375 -32 47 21 52 29 26 53 -39 34 -195 53 -291 36z"></path><path id="pdDFMVUkp" d="M3022 4018 c-6 -7 -18 -32 -27 -55 -14 -36 -19 -41 -34 -31 -20 12 -57 6 -86 -16 -18 -14 -19 -16 -4 -31 44 -45 349 -32 349 15 0 14 -14 20 -59 24 -46 4 -72 21 -64 42 7 20 -24 64 -46 64 -10 0 -23 -6 -29 -12z"></path></g></g><g id="l7Pv7AWneBTLEYkzpFj44Xg" fill="rgb(248,242,236)" style="transform: none; transform-origin: 50% 50%;"><g style="transform: none;"><path id="p13Imz03jl" d="M3035 3877 c-16 -7 -25 -16 -20 -18 16 -9 130 5 130 16 0 15 -76 16 -110 2z"></path><path id="p1GWoYnmxd" d="M2414 3605 c-24 -36 -6 -75 34 -75 35 0 52 16 52 50 0 53 -57 69 -86 25z"></path><path id="pEcwO6XFX" d="M3630 3480 c-30 -30 -24 -40 26 -40 50 0 84 14 84 34 0 31 -80 36 -110 6z"></path><path id="p117yUiI0X" d="M2479 3449 c-14 -27 -6 -106 13 -125 10 -11 22 -11 51 -3 34 9 37 13 37 47 0 44 -14 62 -47 62 -16 0 -23 6 -23 20 0 26 -16 26 -31 -1z"></path><path id="pn0qmkGHe" d="M2596 3398 c-7 -26 -8 -98 -2 -98 31 0 66 50 66 95 0 21 -5 25 -29 25 -21 0 -30 -6 -35 -22z"></path><path id="pbBAM8PdM" d="M3632 3368 c7 -21 55 -33 85 -22 52 18 39 34 -27 34 -45 0 -61 -3 -58 -12z"></path></g></g><g id="l2nBv0ljM7niOMA9b8Wo3hE" fill="rgb(255,255,252)" style="transform: none; transform-origin: 50% 50%;"><g style="transform: none;"><path id="prPKVVVWc" d="M3066 3870 c6 -6 21 -6 39 -1 30 9 30 9 -9 10 -26 1 -37 -2 -30 -9z"></path><path id="pU78VB8yA" d="M2445 3621 c-25 -5 -31 -11 -33 -39 -4 -37 1 -39 30 -12 12 11 28 20 35 20 14 0 18 26 6 33 -5 2 -21 1 -38 -2z"></path><path id="pvvqneExT" d="M3542 3618 c-17 -17 -15 -64 4 -83 18 -18 63 -13 76 8 31 48 -40 115 -80 75z"></path><path id="pitQvobnj" d="M2515 3488 c-28 -16 -35 -28 -35 -64 0 -27 3 -31 23 -27 30 6 58 -24 36 -38 -8 -5 -22 -9 -32 -9 -12 0 -17 -6 -15 -17 5 -26 89 -41 123 -23 26 14 34 39 13 41 -7 0 -4 4 7 9 11 5 14 9 8 9 -18 1 -16 21 2 21 22 0 19 52 -6 84 -16 21 -29 26 -62 26 -23 0 -51 -6 -62 -12z"></path><path id="p11bnLg9MY" d="M3696 3484 c-15 -10 -23 -11 -33 -2 -21 17 -53 -18 -53 -57 0 -50 28 -78 78 -78 49 0 68 14 77 52 13 58 -32 113 -69 85z"></path></g></g></svg>
