<?xml version="1.0" encoding="utf-8"?>
<!-- Generator: Adobe Illustrator 16.0.3, SVG Export Plug-In . SVG Version: 6.00 Build 0)  -->
<!DOCTYPE svg PUBLIC "-//W3C//DTD SVG 1.1//EN" "http://www.w3.org/Graphics/SVG/1.1/DTD/svg11.dtd">
<svg version="1.1" id="Capa_1" xmlns="http://www.w3.org/2000/svg" xmlns:xlink="http://www.w3.org/1999/xlink" x="0px" y="0px"
	 width="450px" height="450px" viewBox="0 0 450 450" enable-background="new 0 0 450 450" xml:space="preserve">
<g>
	<path fill-rule="evenodd" clip-rule="evenodd" fill="#F3BA8E" d="M81.03,265.939c13.229-11.846,28.811-13.639,45.519-10.678
		c1.778,0.315,3.585,0.471,5.379,0.7c1.462-1.2,2.991-0.763,4.531-0.2c1.492,0.583,3.041,0.993,4.569,1.479
		c10.6,4.006,20.544,9.303,30.092,15.359c1.729,1.097,3.49,1.88,5.552,1.926c8.946,0.197,17.847,1.639,26.819,1.043
		c8.475-0.563,16.854,0.943,25.296,1.045c1.719,0.097,3.377-0.271,5.036-0.659c9.645,1.032,19.352,0.077,29,0.881
		c2.308,0.544,4.368,1.945,6.825,2.003c0.517,0.074,1.02,0.205,1.516,0.365c1.886,0.784,4.072,1.228,4.439,3.79
		c-0.039,0.531-0.27,0.966-0.68,1.306c-3.331,1.056-6.871,0.953-10.246,1.829c-4.105,1.066-8.032,7.781-6.635,11.67
		c0.898,2.502,3.453,2.152,5.405,2.856c2.565,0.926,6.286,0.146,6.722,4.378c-4.121,4.978-10.28,3.929-15.363,4.094
		c-10.781,0.351-21.571,0.894-32.322,1.512c-11.928,0.686-23.902,0.17-35.79,1.563c-2.767,0.323-5.472-0.265-7.45-0.44
		c5.629,1.88,11.996-0.302,18.362-0.264c19.591,0.119,39.103-2.118,58.698-2.079c3.104,0.006,6.275-0.602,9.371-1.068
		c4.863-0.734,8.604-3.357,10.5-8.176c0.789-2.008,1.151-4.18,2.318-6.043c1.373-1.599,3.297-2.284,5.204-2.805
		c14.299-3.906,28.635-7.666,43.215-10.401c2.801-0.524,5.649-0.354,8.479-0.34c7.598,0.04,8.665,0.782,11.491,7.815
		c0.578,2.121,1.475,4.194,1.094,6.479c-0.524,1.667-1.511,2.754-3.404,2.684c-2.354-0.761-2.459-2.907-2.869-4.812
		c-0.559-2.588-1.73-2.812-3.821-1.375c-4.206,2.891-8.88,5.064-12.877,8.303c-12.49,5.009-24.663,10.748-36.854,16.391
		c-22.037,10.201-44.469,19.355-67.437,27.184c-8.181,2.788-16.649,2.843-25.108,1.005c-17.319-3.761-33.502-10.805-49.864-17.316
		c-4.028-1.603-7.233-4.712-11.083-6.706c-2.657-1.788-5.677-1.683-8.669-1.69c-14.952-0.041-29.905,0.057-44.86-0.038
		c-2.486-0.377-5.208,0.459-7.402-1.427c-1.479-2.227-1.207-4.768-1.215-7.23c-0.039-11.433-0.04-22.866-0.007-34.3
		c0.019-6.527,0.056-6.517,6.412-8.32C79.715,267.001,80.352,266.413,81.03,265.939z"/>
	<path fill-rule="evenodd" clip-rule="evenodd" fill="#0A2532" d="M61.144,334.999c0.278,3.659-1.442,4.739-5.024,4.724
		c-16.825-0.075-33.652,0.035-50.476,0.247c-2.859,0.036-3.63-0.793-3.619-3.625c0.102-26.321,0.106-52.645-0.003-78.966
		c-0.012-2.932,0.959-3.55,3.697-3.533c16.659,0.103,33.321,0.174,49.977-0.093c4.156-0.066,5.763,1.269,5.454,5.238
		c1.394,2.202,1.565,4.656,1.565,7.176c-0.003,20.553-0.003,41.105,0,61.658C62.714,330.344,62.546,332.8,61.144,334.999z"/>
	<path fill-rule="evenodd" clip-rule="evenodd" fill="#BDC3C9" d="M136.047,256.936c-1.372-0.324-2.745-0.649-4.118-0.974
		c0.048-32.808,0.013-65.615,0.207-98.421c0.047-7.949-1.063-15.966,0.865-23.859c1.757-7.199,9.592-13.598,17.064-13.661
		c10.825-0.092,21.653-0.135,32.476,0.04c3.41,0.056,4.893-0.892,4.592-4.487c-0.263-3.143-0.067-6.324-0.056-9.488
		c0.04-11.744,8.313-20.129,20.029-20.152c21.818-0.044,43.637-0.091,65.453,0.028c8.273,0.046,16.462-1.699,24.836-0.147
		c9.759,1.808,18.544,8.509,17.751,19.188c-0.259,3.479,0.147,7.006-0.105,10.485c-0.254,3.491,0.99,4.625,4.518,4.576
		c11.488-0.156,22.98,0.002,34.472,0.039c0.924,1.03,2.337,1.008,3.433,1.587c2.742,1.447,3.803,3.219,0.192,5.047
		c-1.492,0.116-2.785-0.479-4.081-1.09c-4.521-1.529-9.206-1.225-13.847-1.228c-60.596-0.046-121.191,0.117-181.788,0.077
		c-12.905-0.009-20.173,7.044-20.22,19.985c-0.126,34.626-0.017,69.253-0.081,103.879
		C137.633,251.271,138.363,254.413,136.047,256.936z"/>
	<path fill-rule="evenodd" clip-rule="evenodd" fill="#4E9BA8" d="M344.051,296.997c1.495-0.045,2.462-0.846,3.074-2.152
		c1.087-0.919,2.408-1.046,3.748-1.104c5.827-0.255,10.488-2.832,14.261-7.168c2.289-1.271,1.817-4.991,4.903-5.558
		c1.131,12.734-6.744,20.548-19.774,21.974c-6.751,0.739-12.042,5.377-17.972,8.229c-11.538,5.552-23.124,10.982-34.849,16.117
		c-15.225,6.667-30.375,13.53-45.791,19.723c-11.376,4.57-22.813,9.119-34.76,12.108c-10.686,2.673-20.734-0.496-30.883-3.241
		c-14.391-3.894-27.587-10.643-41.066-16.729c-0.405-0.183-0.652-0.718-0.972-1.089c-0.93-3.077-1.625-6.032,3.188-6.111
		c6.013,0.915,11.265,4.013,16.847,6.128c11.696,4.432,23.418,8.664,35.647,11.428c7.174,1.621,14.048,1.313,21.126-0.934
		c27.066-8.588,52.842-20.31,78.729-31.788c8.376-3.714,16.547-7.867,24.95-11.511c4.702-2.128,9.284-4.505,13.902-6.811
		C340.149,297.615,341.935,296.675,344.051,296.997z"/>
	<path fill-rule="evenodd" clip-rule="evenodd" fill="#E3AD86" d="M325.103,306.031c-12.078,6.694-24.88,11.861-37.422,17.56
		c-16.913,7.683-33.987,15.06-51.51,21.243c-10.703,3.776-21.291,9.066-33.234,6.832c-9.97-1.865-19.664-4.844-29.156-8.393
		c-8.675-3.243-17.246-6.768-25.862-10.168c-5.423-1.417-10.109-5.155-16.005-5.084c-18.577-0.029-37.154-0.06-55.732-0.089
		c-4.103-2.214-4.731-5.643-2.005-10.929c2.3,0,4.601-0.001,6.901-0.001c-1.917,4.571-1.87,4.606,3.314,5.757
		c3.938,0.874,7.847,1.035,11.852,0.337c11.047-1.927,21.96-2.816,32.739,1.951c5.088,2.25,6.918,0.552,7.099-5.052
		c12.114,7.337,25.377,12.091,38.636,16.727c9.817,3.433,19.671,6.893,30.31,7.359c8.394,0.367,16.031-2.155,23.656-4.935
		c21.354-7.785,42.303-16.506,62.885-26.196c10.544-4.965,21.342-9.43,31.839-14.534c0.687-0.334,1.27-0.03,1.686,0.585
		C325.938,301.345,325.281,303.688,325.103,306.031z"/>
	<path fill-rule="evenodd" clip-rule="evenodd" fill="#DADCDF" d="M74.177,317.004c0.506,3.673-1.922,7.884,2.004,10.929
		c-0.464,0.171-1.334,0.336-1.336,0.513c-0.099,7.072-5.282,5.464-9.424,5.516c-1.535,0.02-2.966,0.218-4.277,1.038
		c0.001-25.336,0.003-50.672,0.004-76.008c1.59,1.08,3.392,1.07,5.2,0.994c3.967-0.167,7.104-0.1,8.067,5.354
		c0.632,3.585,4.293,0.765,6.615,0.6c-0.417,0.504-0.859,1.464-1.247,1.442c-7.018-0.386-5.679,4.627-5.678,8.719
		C74.109,289.735,74.15,303.369,74.177,317.004z"/>
	<path fill-rule="evenodd" clip-rule="evenodd" fill="#C6CCD1" d="M370.037,281.015c-1.588,1.818-1.392,4.801-3.92,6.005
		c-2.301-2.525-1.587-5.662-1.591-8.575c-0.05-43.419-0.108-86.838,0.039-130.256c0.025-7.358-0.314-14.313-5.941-19.86
		c-0.601-0.593-0.742-1.468-0.534-2.336c1.999-2.612,0.381-3.484-1.938-3.957c-1.127-0.229-3.048,0.512-2.121-1.934
		c9.172,1.171,16.325,9.535,16.223,19.966c-0.399,40.791-0.098,81.588-0.196,122.382c-0.011,4.52,1.01,8.91,0.955,13.392
		C370.991,277.592,371.685,279.546,370.037,281.015z"/>
	<path fill-rule="evenodd" clip-rule="evenodd" fill="#86B1B3" d="M131.914,328.021c6.214-1.071,11.32,1.347,16.006,5.083
		c-4.54-0.876-3.718,2.479-3.949,5.002c-0.924-1.12-2.191-2.102-2.708-3.386C139.536,330.429,135.958,328.954,131.914,328.021z"/>
	<path fill-rule="evenodd" clip-rule="evenodd" fill="#D0D2D6" d="M229.103,277.892c-18.211-0.636-36.422-1.303-54.635-1.875
		c-3.071-0.097-4.411-2.748-6.643-4.062c-8.961-5.273-18.354-9.644-27.758-14.013c-1.743-1.922-1.567-4.322-1.569-6.636
		c-0.029-35.49-0.108-70.98,0.03-106.47c0.051-13.174,7.471-20.328,20.599-20.325c35.323,0.009,70.646-0.063,105.97,0.031
		c25.738,0.092,51.476,0.021,77.209,0.025c2.673,0.101,5.492-0.581,7.831,1.391c0.875,4.256-2.351,5.063-5.188,5.606
		c-12.988,2.49-24.521,8.817-36.639,13.6c-3.205,1.265-5.674,4.123-9.367,4.337c-1.773-0.173-2.963-1.399-4.292-2.383
		c-32.145-23.792-78.721-16.341-102.854,15.543c-20.229,26.726-19.486,68.536,3.58,93.587c6.205,6.738,13.26,12.021,20.884,16.771
		c2.566,1.6,5.469,2.333,8.499,2.679C226.393,275.886,228.628,275.265,229.103,277.892z"/>
	<path fill-rule="evenodd" clip-rule="evenodd" fill="#D0D2D6" d="M299.098,148.631c8.229-4.606,16.942-8.087,25.631-11.721
		c6.766-2.83,13.472-5.467,20.658-6.764c2.172-0.392,3.723-1.225,4.701-3.157c0.78-0.718,1.704-0.811,2.694-0.632
		c7.073,3.471,10.838,8.999,10.84,17.032c0.009,42.627,0.004,85.255,0.001,127.883c0,8.214-3.913,13.883-11.051,17.538
		c-2.128,1.09-4.325,1.876-6.565,0.199c-3.541-7.393-8.871-8.92-19.89-6.59c-15.757,3.332-31.289,7.538-46.899,11.447
		c-2.222-3.331-1.59-7.754-4.185-10.943c-0.579-1.937-2.735-1.527-3.887-2.611c1.581-2.543,4.505-2.654,6.881-3.635
		c24.18-9.98,39.93-27.463,45.659-53.005c5.767-25.706-0.935-48.385-18.921-67.708C302.666,153.71,299.618,152.127,299.098,148.631z
		"/>
	<path fill-rule="evenodd" clip-rule="evenodd" fill="#E6E6E9" d="M263.999,277.971c-10.15-0.514-20.361,0.801-30.471-1.001
		c-9.467-0.551-17.24-5.252-24.711-10.421c-11.492-7.949-19.45-18.831-25.03-31.522c-0.918-2.088-2.084-4.213-1.209-6.662
		c5.924-4.517,11.788-9.092,16.739-14.74c1.725-1.968,3.603-4.097,6.781-3.299c3.973,1.286,6.969,5.83,11.997,3.573
		c6.43-4.566,8.271-9.865,6.246-18.185c-0.346-1.425-1.208-2.748-0.711-4.307c2.337-1.284,5.211-1.257,7.365-3.003
		c3.486,0.193,7.028,2.302,10.427-0.318c3.998-2.819,5.753-6.984,6.921-11.506c1.811-5.234,2.086-5.48,5.373-4.812
		c0.967,2.967,0.867,6.16,1.971,9.112c2.629,7.04,7.762,9.712,14.088,7.251c6.879-4.66,8.805-13.291,4.846-21.63
		c-0.701-1.479-2.034-2.669-2.08-4.457c0.643-2.625,2.885-3.482,5.012-4.291c5.553-2.112,10.729-4.915,15.691-8.153
		c5.425,0.835,8.435,5.178,11.745,8.692c10.849,11.513,16.532,25.368,18.613,41.088c4.589,34.662-18.953,69.479-53.881,78.48
		c-0.647,0.166-1.305,0.262-1.968,0.321C266.497,278.22,265.259,277.915,263.999,277.971z"/>
	<path fill-rule="evenodd" clip-rule="evenodd" fill="#3CA9B0" d="M267.165,277.191c33.829-8.621,56.621-37.258,55.668-71.057
		c-0.659-23.403-10.208-42.634-29.65-56.413c-1.809,0.163-3.158-0.883-4.55-1.77c-41.167-26.246-98.89-2.818-106.757,49.372
		c-1.276,8.465-1.367,17.244,0.858,25.77c0.42,1.612,0.814,3.238,0.275,4.909c6.838,23.167,22.173,38.296,44.394,46.894
		c2.006,0.776,4.077,1.386,6.122,2.072c-1.312,1.076-2.927,0.709-4.422,0.924c-31.002-3.989-53.547-42.028-53.401-67.449
		c0.196-34.362,15.278-59.17,46.379-72.667c26.361-11.44,52.087-7.679,75.357,9.819c0.521,0.391,1.105,0.694,1.659,1.037
		c18.17,15.605,27.745,35.317,27.825,59.332c0.112,33.442-23.351,63.714-55.777,72.347c-0.356-0.101-0.713-0.202-1.07-0.303
		C269.404,278.76,265.741,280.602,267.165,277.191z"/>
	<path fill-rule="evenodd" clip-rule="evenodd" fill="#E2E4E6" d="M352.096,126.985c-0.669,0.001-1.339,0.003-2.008,0.004
		c-2.108-1.907-4.675-0.609-7.001-1c-1.038-0.752-2.237-0.498-3.378-0.498c-23.751-0.014-47.503-0.014-71.254,0
		c-1.141,0-2.34-0.253-3.379,0.497c-35.663,0.002-71.327,0.002-106.991,0.009c-10.906,0.002-17.984,7.028-17.992,17.955
		c-0.027,37.997-0.021,75.994-0.027,113.99c-1.481,0.231-2.783-0.255-4.019-1.007c0.005-37.655,0.008-75.311,0.018-112.966
		c0.003-13.308,7.626-20.953,21.068-20.959c62.981-0.024,125.961-0.007,188.942-0.02c3.174,0,6.25,0.311,9.044,1.979
		C354.802,126.679,353.149,126.382,352.096,126.985z"/>
	<path fill-rule="evenodd" clip-rule="evenodd" fill="#EAECF0" d="M352.096,126.985c1.008-0.672,2.015-1.343,3.023-2.015
		c0.99,0.341,1.98,0.682,2.971,1.021c6.328,5.064,8.218,11.592,8.169,19.667c-0.284,47.118-0.141,94.24-0.142,141.36
		c-4.481,7.099-11.461,8.133-18.992,7.826c-0.372-1.946-0.744-3.891-1.117-5.836c9.113-0.633,16.062-7.877,16.066-16.895
		c0.023-43.069-0.086-86.14,0.106-129.208C362.215,135.084,357.504,130.988,352.096,126.985z"/>
	<path fill-rule="evenodd" clip-rule="evenodd" fill="#E3AD86" d="M136.083,319.996c0.691,2.095,3.46,4.558,1.241,6.247
		c-2.457,1.871-6.618,1.724-9.096,0.326c-10.116-5.703-20.655-3.848-31.036-2.227c-5.111,0.799-9.891,0.427-14.742-0.517
		c-2.157-0.419-5.272-0.575-5.646-3.28c-0.327-2.37,3.041-2.051,4.275-3.543c16.096-0.002,32.193,0.023,48.289-0.033
		C132.142,316.96,134.731,317.01,136.083,319.996z"/>
	<path fill-rule="evenodd" clip-rule="evenodd" fill="#BB8A68" d="M275.033,282.924c4.672,2.396,3.961,6.85,4.185,10.944
		c-1.132,11.111-5.863,15.49-16.861,16.234c-15.24,1.031-30.533,1.129-45.744,2.188c-9.593,0.668-19.231-0.082-28.81,1.462
		c-4.671,0.752-9.467-0.703-13.788-3.341c5.792,0.555,11.541-0.079,17.251-0.134c13.14-0.126,26.267-0.794,39.349-1.545
		c10.922-0.628,21.926,0.053,32.788-1.712c2.529-0.411,4.81-1.162,6.591-3.078c4.1-6.063,5.051-12.909,4.971-20.011
		C274.987,283.596,275.01,283.26,275.033,282.924z"/>
	<path fill-rule="evenodd" clip-rule="evenodd" fill="#F7CFAA" d="M274.964,283.932c2.623,6.984,0.545,15.352-4.969,20.011
		c-3.271-1.809-7.027-1.86-10.524-2.852c-1.325-0.375-2.616-0.529-3.179-1.989c-1.552-4.029,3.748-13.359,8.058-14.15
		C267.856,284.307,271.29,282.851,274.964,283.932z"/>
	<path fill-rule="evenodd" clip-rule="evenodd" fill="#F7CEAA" d="M325.103,306.031c-1.846-2.341-1.103-4.685-0.009-7.029
		c3.488-5.422,10.231-6.179,14.714-10.236c1.542-1.395,2.153,0.307,2.502,1.65c0.569,2.196,1.16,4.388,1.741,6.581
		C337.734,300.009,331.419,303.021,325.103,306.031z"/>
	<path fill-rule="evenodd" clip-rule="evenodd" fill="#9CB3AA" d="M267.165,277.191c-0.113,2.058,2.299,1.507,2.91,2.816
		c-2.325,0.216-4.416-0.266-6.076-2.037C264.88,277.002,265.993,276.979,267.165,277.191z"/>
	<path fill-rule="evenodd" clip-rule="evenodd" fill="#FEFEFE" d="M296.043,91.954c7.854,3.118,10.963,7.738,11.024,16.375
		c0.083,11.665,0.083,11.667-11.712,11.668c-31.302,0.002-62.604,0.008-93.906-0.001c-6.385-0.002-6.302-0.019-5.593-6.432
		c0.31-2.803,0.129-5.657,0.297-8.48c0.423-7.097,5.869-12.172,12.93-12.179c6.989-0.008,13.978-0.056,20.967-0.086
		c1.485-1.397,3.358-1.323,5.185-1.299c17.986,0.246,35.964-0.36,53.946-0.518C291.513,90.982,293.854,90.927,296.043,91.954z"/>
	<path fill-rule="evenodd" clip-rule="evenodd" fill="#BDC3C9" d="M296.043,91.954c-21.997,0.269-43.98,1.576-65.991,0.866
		c-5.027-1.586-10.205-0.406-15.294-0.842c-1.69-0.145-3.504,0.332-5.504-0.829c1.775-1.633,3.486-1.096,4.999-1.098
		c24.958-0.043,49.917-0.038,74.875-0.048C291.619,90.003,294.169,89.771,296.043,91.954z"/>
	<path fill-rule="evenodd" clip-rule="evenodd" fill="#D7D9DD" d="M265.076,125.988c1.142-1.382,2.729-0.974,4.173-0.975
		c23.223-0.02,46.443-0.019,69.665,0.002c1.443,0.001,3.032-0.41,4.173,0.974C317.084,125.989,291.08,125.988,265.076,125.988z"/>
	<path fill-rule="evenodd" clip-rule="evenodd" fill="#E6E6E9" d="M183.009,228.003c-7.031-23.502-2.935-45.109,11.757-64.521
		c22.657-29.936,66.482-36.628,96.992-15.124c0.531,0.374,0.951,0.906,1.424,1.364c-2.535,5.361-8.445,5.585-12.768,8.179
		c-2.313,1.388-5.139,1.986-7.283,3.832c-3.132,0.999-5.557-2.494-8.706-1.355c-4.483,0.7-6.563,4.001-8.43,7.625
		c-0.762,1.479-0.363,3.827-2.851,4.13c-3.532-0.168-2.398,3.417-3.917,4.868c-1.823-1.46-1.278-3.636-1.655-5.526
		c-1.379-6.913-5.009-10.473-11.369-11.086c-5.254,0.506-8.01,3.951-9.135,8.572c-1.404,5.774-1.499,11.546,2.76,16.507
		c0.826,0.963,1.854,2.001,1.209,3.532c-1.738,2.798-3.963,3.898-7.041,2.017c-2.227,0.164-2.844-1.998-4.275-2.984
		c-2.355-1.624-4.705-3.13-7.766-2.531c-8.258,2.914-11.278,11.375-7.425,20.55c0.653,1.557,2.463,2.897,1.263,4.952
		c-2.35-0.325-3.643,1.315-4.967,2.771c-4.427,4.865-9.349,9.186-14.37,13.415C185.333,228.135,184.424,228.825,183.009,228.003z"/>
	<path fill-rule="evenodd" clip-rule="evenodd" fill="#35B1BB" d="M265.036,256.06c-2.935,0.05-4.867-1.917-6.887-3.571
		c-2.709-2.223-5.639-3.398-9.164-2.742c-2.288-0.786-3.634,1.037-5.269,1.966c-1.985,1.127-3.694,2.716-5.845,3.581
		c-0.615,0.248-1.297,0.122-1.93,0.287c0.579-0.054,1.078,0.038,1.261,0.699c-7.7,1.066-16.019-3.69-19.292-11.03
		c-3.838-8.606-2.811-14.92,4.559-20.335c7.305-5.368,12.303-12.509,17.409-19.673c2.913-4.087,6.822-6.121,11.837-6.283
		c2.115-0.069,3.878,0.356,5.24,2.029c2.736,1.704,4.82,4.046,6.414,6.802c3.959,6.847,9.556,12.118,15.636,17.057
		c4.597,3.734,7.341,8.636,5.844,14.845c-1.783,7.397-5.999,12.853-13.476,15.248C269.345,255.589,267.208,256.021,265.036,256.06z"
		/>
	<path fill-rule="evenodd" clip-rule="evenodd" fill="#37B1BB" d="M289.118,215.023c-5.362,1.4-9.449-0.282-12.021-4.947
		c-5.03-9.128,0.811-22.3,11.075-24.977c8.757,1.441,12.895,7.637,10.76,16.394C297.519,207.292,294.864,212.31,289.118,215.023z"/>
	<path fill-rule="evenodd" clip-rule="evenodd" fill="#37B0BA" d="M205.794,211.003c-3.181-4.729-4.455-9.894-3.815-15.591
		c0.692-6.159,3.866-9.79,10.102-11.223c6.711,1.814,10.8,5.992,12.277,12.913c1.57,7.357-0.035,13.424-6.256,17.979
		C212.828,217.256,209.437,213.751,205.794,211.003z"/>
	<path fill-rule="evenodd" clip-rule="evenodd" fill="#36B1BA" d="M253.146,172.133c1.988-5.77,3.588-11.871,11.044-12.994
		c11.876,0.935,15.714,18.053,8.495,27.196c-0.807,1.021-2.133,1.6-2.52,2.974c-6.777,3.022-13.533-0.429-15.82-8.382
		C253.536,178.113,253.522,175.071,253.146,172.133z"/>
	<path fill-rule="evenodd" clip-rule="evenodd" fill="#36B1BB" d="M231.038,189c-6.745-6.462-7.959-14.13-4.525-22.544
		c1.683-4.126,4.572-7.226,9.518-7.418c9.976,2.644,14.746,14.125,9.929,23.845c-1.104,2.227-2.667,4.144-4.004,6.213
		C238.29,192.022,234.665,190.396,231.038,189z"/>
	<path fill-rule="evenodd" clip-rule="evenodd" fill="#236D74" d="M265.036,256.06c4.543-1.747,9.432-2.364,13.105-6.389
		c6.307-6.909,9.464-17.761-1.195-25.393c-8.609-6.165-13.543-15.347-19.988-23.291c3.799,0.455,5.456,3.61,7.154,6.265
		c4.359,6.812,9.711,12.555,15.998,17.643c6.958,5.631,8.246,12.307,4.638,20.001C281.067,252.741,273.104,257.252,265.036,256.06z"
		/>
	<path fill-rule="evenodd" clip-rule="evenodd" fill="#286D78" d="M270.165,189.309c-0.222-3.663,3.51-5.273,4.219-8.81
		c2.083-10.384-0.752-17.065-10.194-21.36c3.538-1.056,6.2,0.91,8.943,2.595C280.498,172.355,279.313,183.358,270.165,189.309z"/>
	<path fill-rule="evenodd" clip-rule="evenodd" fill="#236D71" d="M218.103,215.082c3.59-4.651,6.326-9.291,5.449-15.812
		c-1.015-7.532-5.453-11.729-11.47-15.081c5.627-0.615,8.737,3.164,11.915,6.827c1.793,4.287,2.978,8.697,2.197,13.384
		C225.372,209.342,223.338,213.445,218.103,215.082z"/>
	<path fill-rule="evenodd" clip-rule="evenodd" fill="#276C74" d="M241.955,189.096c0.651-4.443,4.255-7.659,4.358-12.586
		c0.176-8.263-2.989-13.919-10.281-17.472c7.049,0.114,12.088,5.135,12.963,12.992c0.184,1.646,0.161,3.313,0.233,4.971
		C248.216,181.882,246.511,186.346,241.955,189.096z"/>
	<path fill-rule="evenodd" clip-rule="evenodd" fill="#276E72" d="M289.118,215.023c3.25-2.988,6.217-6.065,7.771-10.443
		c3.255-9.165,0.206-16.301-8.718-19.48c6.411-0.783,10.21,2.014,12.13,8.16C302.615,200.666,297.601,213.091,289.118,215.023z"/>
	<path fill-rule="evenodd" clip-rule="evenodd" fill="#277076" d="M237.203,256.279c-0.306-0.124-0.611-0.248-0.917-0.373
		c1.226-2.527,9.942-6.756,12.698-6.16C244.683,251.247,241.938,255.559,237.203,256.279z"/>
	<rect x="244.366" y="212.757" fill-rule="evenodd" clip-rule="evenodd" fill="#FFFFFF" width="12.716" height="33.256"/>
	<rect x="233.873" y="222.83" fill-rule="evenodd" clip-rule="evenodd" fill="#FFFFFF" width="33.37" height="12.625"/>
</g>
<path fill="#FFFFFF" d="M169.688,222.61"/>
</svg>
